<svg xmlns="http://www.w3.org/2000/svg" width="6.834" height="7.973" viewBox="8.248 3.513 6.834 7.973"><path d="M14.78 5.204c.083.083.154.196.213.338.06.143.09.273.09.392v5.126c0 .118-.042.219-.126.302a.412.412 0 0 1-.302.125h-5.98a.412.412 0 0 1-.303-.125.412.412 0 0 1-.124-.302V3.94c0-.118.041-.219.124-.302a.412.412 0 0 1 .303-.125h3.987c.118 0 .249.03.391.09.143.059.255.13.338.213l1.389 1.388Zm-1.976-1.086v1.673h1.673a.486.486 0 0 0-.098-.182l-1.393-1.393a.486.486 0 0 0-.182-.098Zm1.709 6.8V6.36h-1.851a.412.412 0 0 1-.303-.125.412.412 0 0 1-.125-.302V4.083H8.817v6.834h5.696Zm-2.287-2.64c.097.078.222.16.373.25.175-.02.349-.031.52-.031.437 0 .7.072.788.218.048.065.05.142.01.231 0 .003-.002.006-.005.009l-.009.009v.004c-.018.113-.123.17-.316.17-.142 0-.313-.03-.512-.09a3.244 3.244 0 0 1-.578-.235 8.012 8.012 0 0 0-1.744.369c-.454.777-.813 1.166-1.077 1.166a.259.259 0 0 1-.125-.032l-.106-.053a.47.47 0 0 0-.027-.022c-.03-.03-.039-.083-.027-.16.027-.119.11-.255.25-.407a2.15 2.15 0 0 1 .587-.43c.041-.027.075-.018.102.027.006.006.009.012.009.018.154-.252.313-.545.476-.877a6.79 6.79 0 0 0 .463-1.166 3.597 3.597 0 0 1-.136-.71 1.73 1.73 0 0 1 .03-.567c.032-.118.094-.178.186-.178h.098c.068 0 .12.023.156.067.053.062.066.163.04.303a.096.096 0 0 1-.018.035c.003.01.004.021.004.036v.133c-.006.365-.026.65-.062.855.163.486.38.84.65 1.059Zm-2.563 1.83c.154-.072.357-.306.61-.704a2.536 2.536 0 0 0-.39.374c-.108.13-.182.24-.22.33Zm1.77-4.094c-.044.125-.047.32-.008.587a17.271 17.271 0 0 1 .062-.387.1.1 0 0 1 .018-.035c-.003-.003-.005-.006-.005-.01 0-.002 0-.005-.002-.006l-.002-.007a.256.256 0 0 0-.058-.16c0 .003-.001.006-.004.009v.009Zm-.551 2.941c.4-.16.822-.28 1.263-.36a.797.797 0 0 1-.129-.102 2.357 2.357 0 0 1-.565-.784c-.08.255-.203.547-.369.877l-.2.369Zm2.874-.071c-.071-.071-.279-.107-.623-.107.226.083.41.125.552.125a.432.432 0 0 0 .08-.005c0-.003-.003-.007-.009-.013Z" fill="#053742" fill-rule="evenodd" /></svg>